<svg width="48px" height="32px" viewBox="0 0 48 32" version="1.1" xmlns="http://www.w3.org/2000/svg" xmlns:xlink="http://www.w3.org/1999/xlink">
    <g id="Page-1" stroke="none" stroke-width="1" fill="none" fill-rule="evenodd">
        <g id="Group-4" fill="#49494B">
            <path d="M47,18.5 L1,18.5 C0.447,18.5 0,18.053 0,17.5 L0,14.5 C0,13.948 0.447,13.5 1,13.5 L47,13.5 C47.553,13.5 48,13.948 48,14.5 L48,17.5 C48,18.053 47.553,18.5 47,18.5 Z" id="Fill-1"></path>
            <path d="M47,32 L1,32 C0.447,32 0,31.553 0,31 L0,28 C0,27.448 0.447,27 1,27 L47,27 C47.553,27 48,27.448 48,28 L48,31 C48,31.553 47.553,32 47,32 Z" id="Fill-2"></path>
            <path d="M47,5 L1,5 C0.447,5 0,4.553 0,4 L0,1 C0,0.448 0.447,0 1,0 L47,0 C47.553,0 48,0.448 48,1 L48,4 C48,4.553 47.553,5 47,5 Z" id="Fill-3"></path>
        </g>
    </g>
</svg>
